{
  "accessors": [
    {
      "bufferView": 2,
      "componentType": 5126,
      "count": 65532,
      "max": [
        4.172907829284668,
        3.152235984802246,
        18.534709930419922
      ],
      "min": [
        -3.7427868843078613,
        -3.2987120151519775,
        1.9425710439682007
      ],
      "type": "VEC3"
    },
    {
      "bufferView": 2,
      "byteOffset": 786384,
      "componentType": 5126,
      "count": 65532,
      "max": [
        0.9999990463256836,
        0.9999998807907104,
        0.9999998807907104
      ],
      "min": [
        -1.0,
        -0.9999985694885254,
        -0.9999663829803467
      ],
      "type": "VEC3"
    },
    {
      "bufferView": 1,
      "componentType": 5126,
      "count": 65532,
      "max": [
        0.9995819926261902,
        0.9417719841003418
      ],
      "min": [
        0.00012199999764561653,
        0.03139699995517731
      ],
      "type": "VEC2"
    },
    {
      "bufferView": 0,
      "componentType": 5125,
      "count": 299733,
      "type": "SCALAR"
    },
    {
      "bufferView": 2,
      "byteOffset": 1572768,
      "componentType": 5126,
      "count": 65532,
      "max": [
        5.486211776733398,
        3.997152090072632,
        17.920438766479492
      ],
      "min": [
        -2.697756052017212,
        -2.2667460441589355,
        1.9634829759597778
      ],
      "type": "VEC3"
    },
    {
      "bufferView": 2,
      "byteOffset": 2359152,
      "componentType": 5126,
      "count": 65532,
      "max": [
        0.9999969005584717,
        0.9999994039535522,
        0.9999651908874512
      ],
      "min": [
        -0.9999977350234985,
        -0.9999982118606567,
        -0.9999780654907227
      ],
      "type": "VEC3"
    },
    {
      "bufferView": 1,
      "byteOffset": 524256,
      "componentType": 5126,
      "count": 65532,
      "max": [
        0.9997619986534119,
        0.9420170187950134
      ],
      "min": [
        0.00012199999764561653,
        0.004660999868065119
      ],
      "type": "VEC2"
    },
    {
      "bufferView": 0,
      "byteOffset": 1198932,
      "componentType": 5125,
      "count": 294216,
      "type": "SCALAR"
    },
    {
      "bufferView": 2,
      "byteOffset": 3145536,
      "componentType": 5126,
      "count": 65532,
      "max": [
        4.702230930328369,
        3.1236979961395264,
        16.256736755371094
      ],
      "min": [
        -5.163344860076904,
        -2.732961893081665,
        1.9591599702835083
      ],
      "type": "VEC3"
    },
    {
      "bufferView": 2,
      "byteOffset": 3931920,
      "componentType": 5126,
      "count": 65532,
      "max": [
        1.0,
        0.9999996423721313,
        0.9994900822639465
      ],
      "min": [
        -0.9999992847442627,
        -0.9999998807907104,
        -0.9999979734420776
      ],
      "type": "VEC3"
    },
    {
      "bufferView": 1,
      "byteOffset": 1048512,
      "componentType": 5126,
      "count": 65532,
      "max": [
        0.9998130202293396,
        0.9420170187950134
      ],
      "min": [
        0.00012199999764561653,
        0.022058000788092613
      ],
      "type": "VEC2"
    },
    {
      "bufferView": 0,
      "byteOffset": 2375796,
      "componentType": 5125,
      "count": 303186,
      "type": "SCALAR"
    },
    {
      "bufferView": 2,
      "byteOffset": 4718304,
      "componentType": 5126,
      "count": 65532,
      "max": [
        4.872206211090088,
        2.3393170833587646,
        18.52696990966797
      ],
      "min": [
        -3.970362901687622,
        -2.297914981842041,
        4.634321212768555
      ],
      "type": "VEC3"
    },
    {
      "bufferView": 2,
      "byteOffset": 5504688,
      "componentType": 5126,
      "count": 65532,
      "max": [
        1.0,
        0.9999978542327881,
        0.9999998807907104
      ],
      "min": [
        -0.9999995231628418,
        -0.9999985694885254,
        -0.9999996423721313
      ],
      "type": "VEC3"
    },
    {
      "bufferView": 1,
      "byteOffset": 1572768,
      "componentType": 5126,
      "count": 65532,
      "max": [
        0.9997389912605286,
        0.9417719841003418
      ],
      "min": [
        0.00012199999764561653,
        0.05188700184226036
      ],
      "type": "VEC2"
    },
    {
      "bufferView": 0,
      "byteOffset": 3588540,
      "componentType": 5125,
      "count": 274755,
      "type": "SCALAR"
    },
    {
      "bufferView": 2,
      "byteOffset": 6291072,
      "componentType": 5126,
      "count": 65532,
      "max": [
        4.7923760414123535,
        3.408262014389038,
        16.170812606811523
      ],
      "min": [
        -3.996293067932129,
        -3.2988779544830322,
        1.9438279867172241
      ],
      "type": "VEC3"
    },
    {
      "bufferView": 2,
      "byteOffset": 7077456,
      "componentType": 5126,
      "count": 65532,
      "max": [
        0.9999971389770508,
        0.9999929666519165,
        0.9999997615814209
      ],
      "min": [
        -0.9999958276748657,
        -0.9999985694885254,
        -0.9999840259552002
      ],
      "type": "VEC3"
    },
    {
      "bufferView": 1,
      "byteOffset": 2097024,
      "componentType": 5126,
      "count": 65532,
      "max": [
        0.9997140169143677,
        0.9417719841003418
      ],
      "min": [
        0.00012199999764561653,
        0.00039599998854100704
      ],
      "type": "VEC2"
    },
    {
      "bufferView": 0,
      "byteOffset": 4687560,
      "componentType": 5125,
      "count": 251424,
      "type": "SCALAR"
    },
    {
      "bufferView": 2,
      "byteOffset": 7863840,
      "componentType": 5126,
      "count": 62816,
      "max": [
        3.9749419689178467,
        3.102174997329712,
        18.538848876953125
      ],
      "min": [
        -3.7601430416107178,
        -3.2855160236358643,
        1.952401041984558
      ],
      "type": "VEC3"
    },
    {
      "bufferView": 2,
      "byteOffset": 8617632,
      "componentType": 5126,
      "count": 62816,
      "max": [
        1.0,
        0.9999997615814209,
        0.9999996423721313
      ],
      "min": [
        -0.9999998807907104,
        -1.0,
        -0.9999979734420776
      ],
      "type": "VEC3"
    },
    {
      "bufferView": 1,
      "byteOffset": 2621280,
      "componentType": 5126,
      "count": 62816,
      "max": [
        0.9997990131378174,
        0.9420170187950134
      ],
      "min": [
        0.00012199999764561653,
        0.006829000078141689
      ],
      "type": "VEC2"
    },
    {
      "bufferView": 0,
      "byteOffset": 5693256,
      "componentType": 5125,
      "count": 245487,
      "type": "SCALAR"
    },
    {
      "bufferView": 2,
      "byteOffset": 9371424,
      "componentType": 5126,
      "count": 3883,
      "max": [
        3.946604013442993,
        3.1235039234161377,
        1.9748769998550415
      ],
      "min": [
        -2.3466920852661133,
        -3.265104055404663,
        1.9425710439682007
      ],
      "type": "VEC3"
    },
    {
      "bufferView": 2,
      "byteOffset": 9418020,
      "componentType": 5126,
      "count": 3883,
      "max": [
        0.2572072446346283,
        0.1310960054397583,
        -0.9358851313591003
      ],
      "min": [
        -0.1968924105167389,
        -0.3522944152355194,
        -1.0
      ],
      "type": "VEC3"
    },
    {
      "bufferView": 1,
      "byteOffset": 3123808,
      "componentType": 5126,
      "count": 3883,
      "max": [
        0.8278589844703674,
        0.7032639980316162
      ],
      "min": [
        0.6663680076599121,
        0.5498219728469849
      ],
      "type": "VEC2"
    },
    {
      "bufferView": 0,
      "byteOffset": 6675204,
      "componentType": 5125,
      "count": 4755,
      "type": "SCALAR"
    }
  ],
  "asset": {
    "extras": {
      "author": "noe-3d.at (https://sketchfab.com/www.noe-3d.at)",
      "license": "CC-BY-NC-4.0 (http://creativecommons.org/licenses/by-nc/4.0/)",
      "source": "https://sketchfab.com/3d-models/grabfigur-136147899f7943c1bba2da9a949fb980",
      "title": "Grabfigur"
    },
    "generator": "Sketchfab-11.26.0",
    "version": "2.0"
  },
  "bufferViews": [
    {
      "buffer": 0,
      "byteLength": 6694224,
      "name": "floatBufferViews",
      "target": 34963
    },
    {
      "buffer": 0,
      "byteLength": 3154872,
      "byteOffset": 6694224,
      "byteStride": 8,
      "name": "floatBufferViews",
      "target": 34962
    },
    {
      "buffer": 0,
      "byteLength": 9464616,
      "byteOffset": 9849096,
      "byteStride": 12,
      "name": "floatBufferViews",
      "target": 34962
    }
  ],
  "buffers": [
    {
      "byteLength": 19313712,
      "uri": "scene.bin"
    }
  ],
  "images": [
    {
      "uri": "textures/Engel_O_Material_u1_v1_baseColor.png"
    }
  ],
  "materials": [
    {
      "doubleSided": true,
      "name": "Engel_O_Material_u1_v1",
      "pbrMetallicRoughness": {
        "baseColorTexture": {
          "index": 0
        },
        "metallicFactor": 0.0
      }
    },
    {
      "doubleSided": true,
      "name": "bottom",
      "pbrMetallicRoughness": {
        "baseColorFactor": [
          0.02783213990934462,
          0.02783213990934462,
          0.02783213990934462,
          1.0
        ],
        "metallicFactor": 0.0
      }
    }
  ],
  "meshes": [
    {
      "name": "Object_0",
      "primitives": [
        {
          "attributes": {
            "NORMAL": 1,
            "POSITION": 0,
            "TEXCOORD_0": 2
          },
          "indices": 3,
          "material": 0,
          "mode": 4
        }
      ]
    },
    {
      "name": "Object_1",
      "primitives": [
        {
          "attributes": {
            "NORMAL": 5,
            "POSITION": 4,
            "TEXCOORD_0": 6
          },
          "indices": 7,
          "material": 0,
          "mode": 4
        }
      ]
    },
    {
      "name": "Object_2",
      "primitives": [
        {
          "attributes": {
            "NORMAL": 9,
            "POSITION": 8,
            "TEXCOORD_0": 10
          },
          "indices": 11,
          "material": 0,
          "mode": 4
        }
      ]
    },
    {
      "name": "Object_3",
      "primitives": [
        {
          "attributes": {
            "NORMAL": 13,
            "POSITION": 12,
            "TEXCOORD_0": 14
          },
          "indices": 15,
          "material": 0,
          "mode": 4
        }
      ]
    },
    {
      "name": "Object_4",
      "primitives": [
        {
          "attributes": {
            "NORMAL": 17,
            "POSITION": 16,
            "TEXCOORD_0": 18
          },
          "indices": 19,
          "material": 0,
          "mode": 4
        }
      ]
    },
    {
      "name": "Object_5",
      "primitives": [
        {
          "attributes": {
            "NORMAL": 21,
            "POSITION": 20,
            "TEXCOORD_0": 22
          },
          "indices": 23,
          "material": 0,
          "mode": 4
        }
      ]
    },
    {
      "name": "Object_6",
      "primitives": [
        {
          "attributes": {
            "NORMAL": 25,
            "POSITION": 24,
            "TEXCOORD_0": 26
          },
          "indices": 27,
          "material": 1,
          "mode": 4
        }
      ]
    }
  ],
  "nodes": [
    {
      "children": [
        1
      ],
      "matrix": [
        -0.9996446371078491,
        -0.011100275442004199,
        -0.024235269054770473,
        0.0,
        -0.024241438135504723,
        0.0004216136003376559,
        0.9997060298919678,
        0.0,
        -0.011086794547736645,
        0.9999383091926575,
        -0.0006905504269523188,
        0.0,
        0.44480979442596436,
        0.0022765947505833245,
        -0.6871883273124695,
        1.0
      ],
      "name": "Sketchfab_model"
    },
    {
      "children": [
        2,
        3,
        4,
        5,
        6,
        7,
        8
      ],
      "name": "Engel_C.obj.cleaner.materialmerger.gles"
    },
    {
      "mesh": 0,
      "name": "Object_2"
    },
    {
      "mesh": 1,
      "name": "Object_3"
    },
    {
      "mesh": 2,
      "name": "Object_4"
    },
    {
      "mesh": 3,
      "name": "Object_5"
    },
    {
      "mesh": 4,
      "name": "Object_6"
    },
    {
      "mesh": 5,
      "name": "Object_7"
    },
    {
      "mesh": 6,
      "name": "Object_8"
    }
  ],
  "samplers": [
    {
      "magFilter": 9729,
      "minFilter": 9987,
      "wrapS": 10497,
      "wrapT": 10497
    }
  ],
  "scene": 0,
  "scenes": [
    {
      "name": "Sketchfab_Scene",
      "nodes": [
        0
      ]
    }
  ],
  "textures": [
    {
      "sampler": 0,
      "source": 0
    }
  ]
}
