{
  "accessors": [
    {
      "bufferView": 2,
      "componentType": 5126,
      "count": 65532,
      "max": [
        6.4566831588745117,
        13.324806213378906,
        7.2004766464233398
      ],
      "min": [
        0.07980799674987793,
        0,
        0
      ],
      "type": "VEC3"
    },
    {
      "bufferView": 2,
      "byteOffset": 786384,
      "componentType": 5126,
      "count": 65532,
      "max": [
        0.9999728798866272,
        0.99998646974563599,
        0.99997478723526001
      ],
      "min": [
        -0.99967813491821289,
        -0.99999314546585083,
        -0.99999535083770752
      ],
      "type": "VEC3"
    },
    {
      "bufferView": 3,
      "componentType": 5126,
      "count": 65532,
      "max": [
        0.99979096651077271,
        0.99999076128005981,
        0.99838274717330933,
        1
      ],
      "min": [
        -0.99999994039535522,
        -0.98895621299743652,
        -0.99995326995849609,
        -1
      ],
      "type": "VEC4"
    },
    {
      "bufferView": 1,
      "componentType": 5126,
      "count": 65532,
      "max": [
        0.99791902303695679,
        0.99432498216629028
      ],
      "min": [
        0.004162999801337719,
        0.0041269999928772449
      ],
      "type": "VEC2"
    },
    {
      "bufferView": 0,
      "componentType": 5125,
      "count": 350919,
      "max": [
        65531
      ],
      "min": [
        0
      ],
      "type": "SCALAR"
    },
    {
      "bufferView": 2,
      "byteOffset": 1572768,
      "componentType": 5126,
      "count": 65532,
      "max": [
        6.4993152618408203,
        10.092109680175781,
        6.7802009582519531
      ],
      "min": [
        0.7032160758972168,
        1.1179180145263672,
        3.151824951171875
      ],
      "type": "VEC3"
    },
    {
      "bufferView": 2,
      "byteOffset": 2359152,
      "componentType": 5126,
      "count": 65532,
      "max": [
        0.99998736381530762,
        0.99994564056396484,
        0.99997186660766602
      ],
      "min": [
        -0.99999338388442993,
        -0.99988013505935669,
        -0.99998074769973755
      ],
      "type": "VEC3"
    },
    {
      "bufferView": 3,
      "byteOffset": 1048512,
      "componentType": 5126,
      "count": 65532,
      "max": [
        0.99990195035934448,
        0.99998462200164795,
        0.99894112348556519,
        1
      ],
      "min": [
        -0.99999195337295532,
        -0.99940991401672363,
        -0.99999868869781494,
        -1
      ],
      "type": "VEC4"
    },
    {
      "bufferView": 1,
      "byteOffset": 524256,
      "componentType": 5126,
      "count": 65532,
      "max": [
        0.99388599395751953,
        0.99793601036071777
      ],
      "min": [
        0.004162999801337719,
        0.0041269999928772449
      ],
      "type": "VEC2"
    },
    {
      "bufferView": 0,
      "byteOffset": 1403676,
      "componentType": 5125,
      "count": 347760,
      "max": [
        65531
      ],
      "min": [
        0
      ],
      "type": "SCALAR"
    },
    {
      "bufferView": 2,
      "byteOffset": 3145536,
      "componentType": 5126,
      "count": 65532,
      "max": [
        5.4874911308288574,
        13.294200897216797,
        6.7354516983032227
      ],
      "min": [
        0,
        6.5883793830871582,
        3.237083911895752
      ],
      "type": "VEC3"
    },
    {
      "bufferView": 2,
      "byteOffset": 3931920,
      "componentType": 5126,
      "count": 65532,
      "max": [
        0.99999475479125977,
        0.99971777200698853,
        0.999991774559021
      ],
      "min": [
        -0.99999797344207764,
        -0.99999886751174927,
        -0.99996614456176758
      ],
      "type": "VEC3"
    },
    {
      "bufferView": 3,
      "byteOffset": 2097024,
      "componentType": 5126,
      "count": 65532,
      "max": [
        0.99990195035934448,
        0.99999785423278809,
        0.9806937575340271,
        1
      ],
      "min": [
        -0.99999153614044189,
        -0.98726427555084229,
        -0.99994462728500366,
        -1
      ],
      "type": "VEC4"
    },
    {
      "bufferView": 1,
      "byteOffset": 1048512,
      "componentType": 5126,
      "count": 65532,
      "max": [
        0.96279400587081909,
        0.95408201217651367
      ],
      "min": [
        0.004162999801337719,
        0.0041269999928772449
      ],
      "type": "VEC2"
    },
    {
      "bufferView": 0,
      "byteOffset": 2794716,
      "componentType": 5125,
      "count": 347088,
      "max": [
        65531
      ],
      "min": [
        0
      ],
      "type": "SCALAR"
    },
    {
      "bufferView": 2,
      "byteOffset": 4718304,
      "componentType": 5126,
      "count": 22837,
      "max": [
        5.7572307586669922,
        13.289185523986816,
        6.728416919708252
      ],
      "min": [
        0.064882993698120117,
        6.6116495132446289,
        2.4196639060974121
      ],
      "type": "VEC3"
    },
    {
      "bufferView": 2,
      "byteOffset": 4992348,
      "componentType": 5126,
      "count": 22837,
      "max": [
        0.9999881386756897,
        0.98465222120285034,
        0.99996614456176758
      ],
      "min": [
        -0.9993206262588501,
        -0.99999260902404785,
        -0.99997574090957642
      ],
      "type": "VEC3"
    },
    {
      "bufferView": 3,
      "byteOffset": 3145536,
      "componentType": 5126,
      "count": 22837,
      "max": [
        0.99901562929153442,
        0.99999672174453735,
        0.99924218654632568,
        1
      ],
      "min": [
        -0.99950891733169556,
        -0.99745619297027588,
        -0.99987012147903442,
        1
      ],
      "type": "VEC4"
    },
    {
      "bufferView": 1,
      "byteOffset": 1572768,
      "componentType": 5126,
      "count": 22837,
      "max": [
        0.96214401721954346,
        0.99561500549316406
      ],
      "min": [
        0.004162999801337719,
        0.0041269999928772449
      ],
      "type": "VEC2"
    },
    {
      "bufferView": 0,
      "byteOffset": 4183068,
      "componentType": 5125,
      "count": 119424,
      "max": [
        22836
      ],
      "min": [
        0
      ],
      "type": "SCALAR"
    }
  ],
  "asset": {
    "extras": {
      "author": "Geoffrey Marchal (https://sketchfab.com/geoffreymarchal)",
      "license": "CC-BY-4.0 (http://creativecommons.org/licenses/by/4.0/)",
      "source": "https://sketchfab.com/models/8ee8411b0b33471d8c9b9ced27768681",
      "title": "Discobolus"
    },
    "generator": "Sketchfab-3.19.6",
    "version": "2.0"
  },
  "bufferViews": [
    {
      "buffer": 0,
      "byteLength": 4660764,
      "byteOffset": 0,
      "name": "floatBufferViews",
      "target": 34963
    },
    {
      "buffer": 0,
      "byteLength": 1755464,
      "byteOffset": 4660764,
      "byteStride": 8,
      "name": "floatBufferViews",
      "target": 34962
    },
    {
      "buffer": 0,
      "byteLength": 5266392,
      "byteOffset": 6416228,
      "byteStride": 12,
      "name": "floatBufferViews",
      "target": 34962
    },
    {
      "buffer": 0,
      "byteLength": 3510928,
      "byteOffset": 11682620,
      "byteStride": 16,
      "name": "floatBufferViews",
      "target": 34962
    }
  ],
  "buffers": [
    {
      "byteLength": 15193548,
      "uri": "scene.bin"
    }
  ],
  "images": [
    {
      "uri": "textures/Material_0_baseColor.jpeg"
    },
    {
      "uri": "textures/Material_0_metallicRoughness.png"
    }
  ],
  "materials": [
    {
      "doubleSided": true,
      "name": "Material_0",
      "occlusionTexture": {
        "index": 1,
        "strength": 0.66634908540000004,
        "texCoord": 0
      },
      "pbrMetallicRoughness": {
        "baseColorFactor": [
          1,
          1,
          1,
          1
        ],
        "baseColorTexture": {
          "index": 0,
          "texCoord": 0
        },
        "metallicFactor": 0,
        "roughnessFactor": 0.55316310980000005
      }
    }
  ],
  "meshes": [
    {
      "primitives": [
        {
          "attributes": {
            "NORMAL": 1,
            "POSITION": 0,
            "TANGENT": 2,
            "TEXCOORD_0": 3
          },
          "indices": 4,
          "material": 0,
          "mode": 4
        }
      ]
    },
    {
      "primitives": [
        {
          "attributes": {
            "NORMAL": 6,
            "POSITION": 5,
            "TANGENT": 7,
            "TEXCOORD_0": 8
          },
          "indices": 9,
          "material": 0,
          "mode": 4
        }
      ]
    },
    {
      "primitives": [
        {
          "attributes": {
            "NORMAL": 11,
            "POSITION": 10,
            "TANGENT": 12,
            "TEXCOORD_0": 13
          },
          "indices": 14,
          "material": 0,
          "mode": 4
        }
      ]
    },
    {
      "primitives": [
        {
          "attributes": {
            "NORMAL": 16,
            "POSITION": 15,
            "TANGENT": 17,
            "TEXCOORD_0": 18
          },
          "indices": 19,
          "material": 0,
          "mode": 4
        }
      ]
    }
  ],
  "nodes": [
    {
      "children": [
        1
      ],
      "name": "RootNode (gltf orientation matrix)",
      "rotation": [
        -0.70710678118654746,
        -0,
        -0,
        0.70710678118654757
      ]
    },
    {
      "children": [
        2
      ],
      "matrix": [
        0.73261404037475586,
        -0.68064427375793457,
        0,
        0,
        0,
        0,
        -1,
        0,
        0.68064427375793457,
        0.73261404037475586,
        0,
        0,
        0.59637463092803955,
        -7.0797843933105469,
        -8.5978851318359375,
        1
      ],
      "name": "RootNode (model correction matrix)"
    },
    {
      "children": [
        3
      ],
      "matrix": [
        1,
        0,
        0,
        0,
        0,
        1,
        0,
        0,
        0,
        0,
        1,
        0,
        -2.8504800796508789,
        -14.540876388549805,
        -4.3196239471435547,
        1
      ],
      "name": "disco.obj.cleaner.materialmerger.gles"
    },
    {
      "children": [
        4,
        5,
        6,
        7
      ],
      "name": ""
    },
    {
      "mesh": 0,
      "name": ""
    },
    {
      "mesh": 1,
      "name": ""
    },
    {
      "mesh": 2,
      "name": ""
    },
    {
      "mesh": 3,
      "name": ""
    }
  ],
  "samplers": [
    {
      "magFilter": 9729,
      "minFilter": 9987,
      "wrapS": 10497,
      "wrapT": 10497
    },
    {
      "magFilter": 9728,
      "minFilter": 9728,
      "wrapS": 10497,
      "wrapT": 10497
    }
  ],
  "scene": 0,
  "scenes": [
    {
      "name": "OSG_Scene",
      "nodes": [
        0
      ]
    }
  ],
  "textures": [
    {
      "sampler": 0,
      "source": 0
    },
    {
      "sampler": 1,
      "source": 1
    }
  ]
}

