{
  "accessors": [
    {
      "bufferView": 2,
      "componentType": 5126,
      "count": 20,
      "max": [
        0.3750000298023224,
        0.4390000104904175,
        0.015000000596046448
      ],
      "min": [
        -0.3750000298023224,
        -0.4390000104904175,
        -0.012463564053177834
      ],
      "type": "VEC3"
    },
    {
      "bufferView": 2,
      "byteOffset": 240,
      "componentType": 5126,
      "count": 20,
      "max": [
        1.0,
        1.0,
        1.0
      ],
      "min": [
        -1.0,
        -1.0,
        0.0
      ],
      "type": "VEC3"
    },
    {
      "bufferView": 1,
      "componentType": 5126,
      "count": 20,
      "max": [
        1.0,
        0.9999999403953552
      ],
      "min": [
        0.0,
        0.0
      ],
      "type": "VEC2"
    },
    {
      "bufferView": 1,
      "byteOffset": 160,
      "componentType": 5126,
      "count": 20,
      "max": [
        1.0,
        0.9999999403953552
      ],
      "min": [
        0.0,
        0.0
      ],
      "type": "VEC2"
    },
    {
      "bufferView": 0,
      "componentType": 5125,
      "count": 30,
      "type": "SCALAR"
    },
    {
      "bufferView": 2,
      "byteOffset": 480,
      "componentType": 5126,
      "count": 4,
      "max": [
        0.3750000298023224,
        0.4390000104904175,
        -0.012463564053177834
      ],
      "min": [
        -0.3750000298023224,
        -0.4390000104904175,
        -0.012463564053177834
      ],
      "type": "VEC3"
    },
    {
      "bufferView": 2,
      "byteOffset": 528,
      "componentType": 5126,
      "count": 4,
      "max": [
        0.0,
        0.0,
        -1.0
      ],
      "min": [
        0.0,
        0.0,
        -1.0
      ],
      "type": "VEC3"
    },
    {
      "bufferView": 3,
      "componentType": 5126,
      "count": 4,
      "max": [
        1.0,
        0.0,
        -0.0,
        -1.0
      ],
      "min": [
        1.0,
        0.0,
        -0.0,
        -1.0
      ],
      "type": "VEC4"
    },
    {
      "bufferView": 1,
      "byteOffset": 320,
      "componentType": 5126,
      "count": 4,
      "max": [
        1.0,
        0.9978290796279907
      ],
      "min": [
        0.006705573759973049,
        0.007959980517625809
      ],
      "type": "VEC2"
    },
    {
      "bufferView": 1,
      "byteOffset": 352,
      "componentType": 5126,
      "count": 4,
      "max": [
        1.0,
        0.9978290796279907
      ],
      "min": [
        0.006705573759973049,
        0.007959980517625809
      ],
      "type": "VEC2"
    },
    {
      "bufferView": 0,
      "byteOffset": 120,
      "componentType": 5125,
      "count": 6,
      "type": "SCALAR"
    },
    {
      "bufferView": 2,
      "byteOffset": 576,
      "componentType": 5126,
      "count": 65532,
      "max": [
        0.5174698233604431,
        0.010940193198621273,
        0.003767952788621187
      ],
      "min": [
        -0.5174745321273804,
        -1.146296739578247,
        -0.09017758071422577
      ],
      "type": "VEC3"
    },
    {
      "bufferView": 2,
      "byteOffset": 786960,
      "componentType": 5126,
      "count": 65532,
      "max": [
        1.0,
        1.0,
        1.0
      ],
      "min": [
        -1.0,
        -1.0,
        -1.0
      ],
      "type": "VEC3"
    },
    {
      "bufferView": 1,
      "byteOffset": 384,
      "componentType": 5126,
      "count": 65532,
      "max": [
        1.4954602718353271,
        1.5
      ],
      "min": [
        -0.5011729001998901,
        -0.5000002384185791
      ],
      "type": "VEC2"
    },
    {
      "bufferView": 0,
      "byteOffset": 144,
      "componentType": 5125,
      "count": 286077,
      "type": "SCALAR"
    },
    {
      "bufferView": 2,
      "byteOffset": 1573344,
      "componentType": 5126,
      "count": 65532,
      "max": [
        0.5149639844894409,
        -0.012007534503936768,
        0.003767953719943762
      ],
      "min": [
        -0.517474353313446,
        -1.146296739578247,
        -0.05607445910573006
      ],
      "type": "VEC3"
    },
    {
      "bufferView": 2,
      "byteOffset": 2359728,
      "componentType": 5126,
      "count": 65532,
      "max": [
        1.0,
        1.0,
        1.0
      ],
      "min": [
        -0.9998395442962646,
        -1.0,
        -1.0
      ],
      "type": "VEC3"
    },
    {
      "bufferView": 1,
      "byteOffset": 524640,
      "componentType": 5126,
      "count": 65532,
      "max": [
        1.5,
        1.4206820726394653
      ],
      "min": [
        0.19279348850250244,
        -0.5
      ],
      "type": "VEC2"
    },
    {
      "bufferView": 0,
      "byteOffset": 1144452,
      "componentType": 5125,
      "count": 295188,
      "type": "SCALAR"
    },
    {
      "bufferView": 2,
      "byteOffset": 3146112,
      "componentType": 5126,
      "count": 65532,
      "max": [
        0.5149749517440796,
        0.01094014011323452,
        0.003767953719943762
      ],
      "min": [
        -0.5174480676651001,
        -1.146296739578247,
        -0.007142104208469391
      ],
      "type": "VEC3"
    },
    {
      "bufferView": 2,
      "byteOffset": 3932496,
      "componentType": 5126,
      "count": 65532,
      "max": [
        1.0,
        0.9999711513519287,
        1.0
      ],
      "min": [
        -1.0,
        -0.9998964071273804,
        -1.0
      ],
      "type": "VEC3"
    },
    {
      "bufferView": 1,
      "byteOffset": 1048896,
      "componentType": 5126,
      "count": 65532,
      "max": [
        1.4737604856491089,
        0.6080106496810913
      ],
      "min": [
        0.7845947742462158,
        -0.49977123737335205
      ],
      "type": "VEC2"
    },
    {
      "bufferView": 0,
      "byteOffset": 2325204,
      "componentType": 5125,
      "count": 296703,
      "type": "SCALAR"
    },
    {
      "bufferView": 2,
      "byteOffset": 4718880,
      "componentType": 5126,
      "count": 65532,
      "max": [
        0.5174612998962402,
        0.01094016432762146,
        0.003767953719943762
      ],
      "min": [
        -0.5024980902671814,
        -1.1454921960830688,
        -0.007142099551856518
      ],
      "type": "VEC3"
    },
    {
      "bufferView": 2,
      "byteOffset": 5505264,
      "componentType": 5126,
      "count": 65532,
      "max": [
        1.0,
        0.9998548030853271,
        1.0
      ],
      "min": [
        -1.0,
        -0.9987966418266296,
        -1.0
      ],
      "type": "VEC3"
    },
    {
      "bufferView": 1,
      "byteOffset": 1573152,
      "componentType": 5126,
      "count": 65532,
      "max": [
        1.5,
        0.6080101132392883
      ],
      "min": [
        0.7845947742462158,
        -0.5
      ],
      "type": "VEC2"
    },
    {
      "bufferView": 0,
      "byteOffset": 3512016,
      "componentType": 5125,
      "count": 294243,
      "type": "SCALAR"
    },
    {
      "bufferView": 2,
      "byteOffset": 6291648,
      "componentType": 5126,
      "count": 61054,
      "max": [
        0.5157626271247864,
        0.010940156877040863,
        0.003767953719943762
      ],
      "min": [
        -0.5166813731193542,
        -1.146296501159668,
        -0.09017755836248398
      ],
      "type": "VEC3"
    },
    {
      "bufferView": 2,
      "byteOffset": 7024296,
      "componentType": 5126,
      "count": 61054,
      "max": [
        1.0,
        1.0,
        1.0
      ],
      "min": [
        -1.0,
        -1.0,
        -1.0
      ],
      "type": "VEC3"
    },
    {
      "bufferView": 1,
      "byteOffset": 2097408,
      "componentType": 5126,
      "count": 61054,
      "max": [
        1.4911192655563354,
        1.4206820726394653
      ],
      "min": [
        -0.5,
        -0.5
      ],
      "type": "VEC2"
    },
    {
      "bufferView": 0,
      "byteOffset": 4688988,
      "componentType": 5125,
      "count": 269124,
      "type": "SCALAR"
    },
    {
      "bufferView": 2,
      "byteOffset": 7756944,
      "componentType": 5126,
      "count": 3912,
      "max": [
        0.036620598286390305,
        0.006116493139415979,
        0.001371003221720457
      ],
      "min": [
        -0.03662058338522911,
        -0.005834206938743591,
        -0.002505226293578744
      ],
      "type": "VEC3"
    },
    {
      "bufferView": 2,
      "byteOffset": 7803888,
      "componentType": 5126,
      "count": 3912,
      "max": [
        1.0,
        1.0,
        1.0
      ],
      "min": [
        -1.0,
        -1.0,
        -1.0
      ],
      "type": "VEC3"
    },
    {
      "bufferView": 1,
      "byteOffset": 2585840,
      "componentType": 5126,
      "count": 3912,
      "max": [
        0.49999991059303284,
        1.0
      ],
      "min": [
        0.0,
        0.0
      ],
      "type": "VEC2"
    },
    {
      "bufferView": 0,
      "byteOffset": 5765484,
      "componentType": 5125,
      "count": 6546,
      "type": "SCALAR"
    },
    {
      "bufferView": 2,
      "byteOffset": 7850832,
      "componentType": 5126,
      "count": 3912,
      "max": [
        0.036620598286390305,
        0.006116493139415979,
        0.001371003221720457
      ],
      "min": [
        -0.03662058338522911,
        -0.005834206938743591,
        -0.002505226293578744
      ],
      "type": "VEC3"
    },
    {
      "bufferView": 2,
      "byteOffset": 7897776,
      "componentType": 5126,
      "count": 3912,
      "max": [
        1.0,
        1.0,
        1.0
      ],
      "min": [
        -1.0,
        -1.0,
        -1.0
      ],
      "type": "VEC3"
    },
    {
      "bufferView": 1,
      "byteOffset": 2617136,
      "componentType": 5126,
      "count": 3912,
      "max": [
        0.49999991059303284,
        1.0
      ],
      "min": [
        0.0,
        0.0
      ],
      "type": "VEC2"
    },
    {
      "bufferView": 0,
      "byteOffset": 5791668,
      "componentType": 5125,
      "count": 6546,
      "type": "SCALAR"
    }
  ],
  "asset": {
    "extras": {
      "author": "mfb64 (https://sketchfab.com/mfb64)",
      "license": "CC-BY-4.0 (http://creativecommons.org/licenses/by/4.0/)",
      "source": "https://sketchfab.com/3d-models/edgar-degas-la-classe-de-danse-7925b41700b747c69e096ba380d3d55e",
      "title": "EDGAR DEGAS La Classe De Danse"
    },
    "generator": "Sketchfab-11.71.0",
    "version": "2.0"
  },
  "bufferViews": [
    {
      "buffer": 0,
      "byteLength": 5817852,
      "name": "floatBufferViews",
      "target": 34963
    },
    {
      "buffer": 0,
      "byteLength": 2648432,
      "byteOffset": 5817852,
      "byteStride": 8,
      "name": "floatBufferViews",
      "target": 34962
    },
    {
      "buffer": 0,
      "byteLength": 7944720,
      "byteOffset": 8466284,
      "byteStride": 12,
      "name": "floatBufferViews",
      "target": 34962
    },
    {
      "buffer": 0,
      "byteLength": 64,
      "byteOffset": 16411004,
      "byteStride": 16,
      "name": "floatBufferViews",
      "target": 34962
    }
  ],
  "buffers": [
    {
      "byteLength": 16411068,
      "uri": "scene.bin"
    }
  ],
  "extensionsRequired": [
    "KHR_materials_pbrSpecularGlossiness"
  ],
  "extensionsUsed": [
    "KHR_materials_pbrSpecularGlossiness"
  ],
  "images": [
    {
      "uri": "textures/paint_diffuse.jpeg"
    },
    {
      "uri": "textures/back_diffuse.jpeg"
    },
    {
      "uri": "textures/back_normal.jpeg"
    },
    {
      "uri": "textures/frame_diffuse.jpeg"
    }
  ],
  "materials": [
    {
      "doubleSided": true,
      "extensions": {
        "KHR_materials_pbrSpecularGlossiness": {
          "diffuseFactor": [
            1.0,
            1.0,
            1.0,
            1.0
          ],
          "diffuseTexture": {
            "index": 0
          },
          "glossinessFactor": 0.19999999999999996,
          "specularFactor": [
            0.0,
            0.0,
            0.0
          ]
        }
      },
      "name": "paint"
    },
    {
      "doubleSided": true,
      "extensions": {
        "KHR_materials_pbrSpecularGlossiness": {
          "diffuseFactor": [
            1.0,
            1.0,
            1.0,
            1.0
          ],
          "diffuseTexture": {
            "index": 1
          },
          "glossinessFactor": 0.5,
          "specularFactor": [
            0.0,
            0.0,
            0.0
          ]
        }
      },
      "name": "back",
      "normalTexture": {
        "index": 2
      }
    },
    {
      "doubleSided": true,
      "extensions": {
        "KHR_materials_pbrSpecularGlossiness": {
          "diffuseFactor": [
            1.0,
            1.0,
            1.0,
            1.0
          ],
          "diffuseTexture": {
            "index": 3
          },
          "glossinessFactor": 0.7,
          "specularFactor": [
            0.8,
            0.8,
            0.8
          ]
        }
      },
      "name": "frame"
    },
    {
      "doubleSided": true,
      "extensions": {
        "KHR_materials_pbrSpecularGlossiness": {
          "diffuseFactor": [
            0.122178,
            0.0671978,
            0.0122696,
            1.0
          ],
          "glossinessFactor": 0.8,
          "specularFactor": [
            1.0,
            1.0,
            1.0
          ]
        }
      },
      "name": "metal"
    }
  ],
  "meshes": [
    {
      "name": "Object_0",
      "primitives": [
        {
          "attributes": {
            "NORMAL": 1,
            "POSITION": 0,
            "TEXCOORD_0": 2,
            "TEXCOORD_1": 3
          },
          "indices": 4,
          "material": 0,
          "mode": 4
        }
      ]
    },
    {
      "name": "Object_1",
      "primitives": [
        {
          "attributes": {
            "NORMAL": 6,
            "POSITION": 5,
            "TANGENT": 7,
            "TEXCOORD_0": 8,
            "TEXCOORD_1": 9
          },
          "indices": 10,
          "material": 1,
          "mode": 4
        }
      ]
    },
    {
      "name": "Object_2",
      "primitives": [
        {
          "attributes": {
            "NORMAL": 12,
            "POSITION": 11,
            "TEXCOORD_0": 13
          },
          "indices": 14,
          "material": 2,
          "mode": 4
        }
      ]
    },
    {
      "name": "Object_3",
      "primitives": [
        {
          "attributes": {
            "NORMAL": 16,
            "POSITION": 15,
            "TEXCOORD_0": 17
          },
          "indices": 18,
          "material": 2,
          "mode": 4
        }
      ]
    },
    {
      "name": "Object_4",
      "primitives": [
        {
          "attributes": {
            "NORMAL": 20,
            "POSITION": 19,
            "TEXCOORD_0": 21
          },
          "indices": 22,
          "material": 2,
          "mode": 4
        }
      ]
    },
    {
      "name": "Object_5",
      "primitives": [
        {
          "attributes": {
            "NORMAL": 24,
            "POSITION": 23,
            "TEXCOORD_0": 25
          },
          "indices": 26,
          "material": 2,
          "mode": 4
        }
      ]
    },
    {
      "name": "Object_6",
      "primitives": [
        {
          "attributes": {
            "NORMAL": 28,
            "POSITION": 27,
            "TEXCOORD_0": 29
          },
          "indices": 30,
          "material": 2,
          "mode": 4
        }
      ]
    },
    {
      "name": "Object_7",
      "primitives": [
        {
          "attributes": {
            "NORMAL": 32,
            "POSITION": 31,
            "TEXCOORD_0": 33
          },
          "indices": 34,
          "material": 3,
          "mode": 4
        }
      ]
    },
    {
      "name": "Object_8",
      "primitives": [
        {
          "attributes": {
            "NORMAL": 36,
            "POSITION": 35,
            "TEXCOORD_0": 37
          },
          "indices": 38,
          "material": 3,
          "mode": 4
        }
      ]
    }
  ],
  "nodes": [
    {
      "children": [
        1
      ],
      "matrix": [
        1.0,
        0.0,
        0.0,
        0.0,
        0.0,
        2.220446049250313e-16,
        -1.0,
        0.0,
        0.0,
        1.0,
        2.220446049250313e-16,
        0.0,
        0.0,
        0.0,
        0.0,
        1.0
      ],
      "name": "Sketchfab_model"
    },
    {
      "children": [
        2
      ],
      "name": "root"
    },
    {
      "children": [
        3
      ],
      "matrix": [
        1.0,
        0.0,
        0.0,
        0.0,
        0.0,
        2.220446049250313e-16,
        1.0,
        0.0,
        0.0,
        -1.0,
        2.220446049250313e-16,
        0.0,
        0.0,
        0.0,
        0.0,
        1.0
      ],
      "name": "GLTF_SceneRootNode"
    },
    {
      "children": [
        4,
        5,
        6,
        12,
        14
      ],
      "matrix": [
        1.0,
        0.0,
        0.0,
        0.0,
        0.0,
        0.9954441785812378,
        0.0,
        0.0,
        0.0,
        0.0,
        1.0,
        0.0,
        0.0,
        0.0,
        -0.0017450377345085144,
        1.0
      ],
      "name": "La Classe de danse_3"
    },
    {
      "mesh": 0,
      "name": "Object_4"
    },
    {
      "mesh": 1,
      "name": "Object_5"
    },
    {
      "children": [
        7,
        8,
        9,
        10,
        11
      ],
      "matrix": [
        -0.9999999999999885,
        1.5099737993295916e-07,
        0.0,
        0.0,
        -1.5168844708145223e-07,
        -1.004576683044422,
        0.0,
        0.0,
        -0.0,
        0.0,
        1.0,
        0.0,
        -0.0008559487760066986,
        -0.5702764391899109,
        0.07271399348974228,
        1.0
      ],
      "name": "frame_0"
    },
    {
      "mesh": 2,
      "name": "Object_7"
    },
    {
      "mesh": 3,
      "name": "Object_8"
    },
    {
      "mesh": 4,
      "name": "Object_9"
    },
    {
      "mesh": 5,
      "name": "Object_10"
    },
    {
      "mesh": 6,
      "name": "Object_11"
    },
    {
      "children": [
        13
      ],
      "matrix": [
        1.0,
        0.0,
        0.0,
        0.0,
        0.0,
        1.0045766830444336,
        0.0,
        0.0,
        0.0,
        0.0,
        1.0,
        0.0,
        -0.30000001192092896,
        0.46219614148139954,
        -0.01883457601070404,
        1.0
      ],
      "name": "hook1_1"
    },
    {
      "mesh": 7,
      "name": "Object_13"
    },
    {
      "children": [
        15
      ],
      "matrix": [
        1.0,
        0.0,
        0.0,
        0.0,
        0.0,
        1.0045766830444336,
        0.0,
        0.0,
        0.0,
        0.0,
        1.0,
        0.0,
        0.30000001192092896,
        0.46219614148139954,
        -0.01883457601070404,
        1.0
      ],
      "name": "hook2_2"
    },
    {
      "mesh": 8,
      "name": "Object_15"
    }
  ],
  "samplers": [
    {
      "magFilter": 9729,
      "minFilter": 9987,
      "wrapS": 10497,
      "wrapT": 10497
    }
  ],
  "scene": 0,
  "scenes": [
    {
      "name": "Sketchfab_Scene",
      "nodes": [
        0
      ]
    }
  ],
  "textures": [
    {
      "sampler": 0,
      "source": 0
    },
    {
      "sampler": 0,
      "source": 1
    },
    {
      "sampler": 0,
      "source": 2
    },
    {
      "sampler": 0,
      "source": 3
    }
  ]
}
